# Wavefront OBJ file automatically generated by Tiled2Unity

# Vertices (Count = 140)
v 0 -0.639999985694885 0
v -0.319999992847443 -0.639999985694885 0
v -0.319999992847443 -0.319999992847443 0
v 0 -0.319999992847443 0
v -0.639999985694885 -0.639999985694885 0
v -0.639999985694885 -0.319999992847443 0
v -0.959999978542328 -0.639999985694885 0
v -0.959999978542328 -0.319999992847443 0
v -1.27999997138977 -0.639999985694885 0
v -1.27999997138977 -0.319999992847443 0
v -1.59999990463257 -0.639999985694885 0
v -1.59999990463257 -0.319999992847443 0
v -1.91999995708466 -0.639999985694885 0
v -1.91999995708466 -0.319999992847443 0
v -2.24000000953674 -0.639999985694885 0
v -2.24000000953674 -0.319999992847443 0
v -2.55999994277954 -0.639999985694885 0
v -2.55999994277954 -0.319999992847443 0
v -2.87999987602234 -0.639999985694885 0
v -2.87999987602234 -0.319999992847443 0
v -3.19999980926514 -0.639999985694885 0
v -3.19999980926514 -0.319999992847443 0
v -3.51999998092651 -0.639999985694885 0
v -3.51999998092651 -0.319999992847443 0
v -3.83999991416931 -0.639999985694885 0
v -3.83999991416931 -0.319999992847443 0
v -4.15999984741211 -0.639999985694885 0
v -4.15999984741211 -0.319999992847443 0
v -4.48000001907349 -0.639999985694885 0
v -4.48000001907349 -0.319999992847443 0
v 0 -0.959999978542328 0
v -0.319999992847443 -0.959999978542328 0
v -0.639999985694885 -0.959999978542328 0
v -0.959999978542328 -0.959999978542328 0
v -1.27999997138977 -0.959999978542328 0
v -1.59999990463257 -0.959999978542328 0
v -1.91999995708466 -0.959999978542328 0
v -2.24000000953674 -0.959999978542328 0
v -2.55999994277954 -0.959999978542328 0
v -2.87999987602234 -0.959999978542328 0
v -3.19999980926514 -0.959999978542328 0
v -3.51999998092651 -0.959999978542328 0
v -3.83999991416931 -0.959999978542328 0
v -4.15999984741211 -0.959999978542328 0
v -4.48000001907349 -0.959999978542328 0
v 0 -1.27999997138977 0
v -0.319999992847443 -1.27999997138977 0
v -0.639999985694885 -1.27999997138977 0
v -0.959999978542328 -1.27999997138977 0
v -1.27999997138977 -1.27999997138977 0
v -1.59999990463257 -1.27999997138977 0
v -1.91999995708466 -1.27999997138977 0
v -2.24000000953674 -1.27999997138977 0
v -2.55999994277954 -1.27999997138977 0
v -2.87999987602234 -1.27999997138977 0
v -3.19999980926514 -1.27999997138977 0
v -3.51999998092651 -1.27999997138977 0
v -3.83999991416931 -1.27999997138977 0
v -4.15999984741211 -1.27999997138977 0
v -4.48000001907349 -1.27999997138977 0
v 0 -1.59999990463257 0
v -0.319999992847443 -1.59999990463257 0
v -0.639999985694885 -1.59999990463257 0
v -0.959999978542328 -1.59999990463257 0
v -1.27999997138977 -1.59999990463257 0
v -1.59999990463257 -1.59999990463257 0
v -1.91999995708466 -1.59999990463257 0
v -2.24000000953674 -1.59999990463257 0
v -2.55999994277954 -1.59999990463257 0
v -2.87999987602234 -1.59999990463257 0
v -3.19999980926514 -1.59999990463257 0
v -3.51999998092651 -1.59999990463257 0
v -3.83999991416931 -1.59999990463257 0
v -4.15999984741211 -1.59999990463257 0
v -4.48000001907349 -1.59999990463257 0
v 0 -1.91999995708466 0
v -0.319999992847443 -1.91999995708466 0
v -0.639999985694885 -1.91999995708466 0
v -0.959999978542328 -1.91999995708466 0
v -1.27999997138977 -1.91999995708466 0
v -1.59999990463257 -1.91999995708466 0
v -1.91999995708466 -1.91999995708466 0
v -2.24000000953674 -1.91999995708466 0
v -2.55999994277954 -1.91999995708466 0
v -2.87999987602234 -1.91999995708466 0
v -3.19999980926514 -1.91999995708466 0
v -3.51999998092651 -1.91999995708466 0
v -3.83999991416931 -1.91999995708466 0
v -4.15999984741211 -1.91999995708466 0
v -4.48000001907349 -1.91999995708466 0
v 0 -2.24000000953674 0
v -0.319999992847443 -2.24000000953674 0
v -0.639999985694885 -2.24000000953674 0
v -0.959999978542328 -2.24000000953674 0
v -1.27999997138977 -2.24000000953674 0
v -1.59999990463257 -2.24000000953674 0
v -1.91999995708466 -2.24000000953674 0
v -2.24000000953674 -2.24000000953674 0
v -2.55999994277954 -2.24000000953674 0
v -2.87999987602234 -2.24000000953674 0
v -3.19999980926514 -2.24000000953674 0
v -3.51999998092651 -2.24000000953674 0
v -3.83999991416931 -2.24000000953674 0
v -4.15999984741211 -2.24000000953674 0
v -4.48000001907349 -2.24000000953674 0
v 0 -2.55999994277954 0
v -0.319999992847443 -2.55999994277954 0
v -0.639999985694885 -2.55999994277954 0
v -0.959999978542328 -2.55999994277954 0
v -1.27999997138977 -2.55999994277954 0
v -1.59999990463257 -2.55999994277954 0
v -1.91999995708466 -2.55999994277954 0
v -2.24000000953674 -2.55999994277954 0
v -2.55999994277954 -2.55999994277954 0
v -2.87999987602234 -2.55999994277954 0
v -3.19999980926514 -2.55999994277954 0
v -3.51999998092651 -2.55999994277954 0
v -3.83999991416931 -2.55999994277954 0
v -4.15999984741211 -2.55999994277954 0
v -4.48000001907349 -2.55999994277954 0
v 0 -2.87999987602234 0
v -0.319999992847443 -2.87999987602234 0
v -0.639999985694885 -2.87999987602234 0
v -0.959999978542328 -2.87999987602234 0
v -1.27999997138977 -2.87999987602234 0
v -1.59999990463257 -2.87999987602234 0
v -1.91999995708466 -2.87999987602234 0
v -2.24000000953674 -2.87999987602234 0
v -2.55999994277954 -2.87999987602234 0
v -2.87999987602234 -2.87999987602234 0
v -3.19999980926514 -2.87999987602234 0
v -3.51999998092651 -2.87999987602234 0
v -3.83999991416931 -2.87999987602234 0
v -4.15999984741211 -2.87999987602234 0
v -4.48000001907349 -2.87999987602234 0
v -1.59999990463257 0 0
v -1.27999997138977 0 0
v -1.91999995708466 0 0
v -2.24000000953674 0 0
v -2.55999994277954 0 0

# Texture Coorindates (Count = 189)
vt 0.0001220703 0.8847374
vt 0.1248779 0.8847374
vt 0.1248779 0.9229549
vt 0.0001220703 0.9229549
vt 0.6251221 0.923199
vt 0.7498779 0.923199
vt 0.7498779 0.9614164
vt 0.6251221 0.9614164
vt 0.1251221 0.8847374
vt 0.2498779 0.8847374
vt 0.2498779 0.9229549
vt 0.1251221 0.9229549
vt 0.0001220703 0.8462759
vt 0.1248779 0.8462759
vt 0.1248779 0.8844933
vt 0.0001220703 0.8844933
vt 0.7501221 0.9688721
vt 0.8748779 0.9688721
vt 0.8748779 0.9998779
vt 0.7501221 0.9998779
vt 0.1251221 0.8462759
vt 0.2498779 0.8462759
vt 0.2498779 0.8844933
vt 0.1251221 0.8844933
vt 0.0001220703 0.8078144
vt 0.1248779 0.8078144
vt 0.1248779 0.8460318
vt 0.0001220703 0.8460318
vt 0.6251221 0.8462759
vt 0.7498779 0.8462759
vt 0.7498779 0.8844933
vt 0.6251221 0.8844933
vt 0.5001221 0.8462759
vt 0.6248779 0.8462759
vt 0.6248779 0.8844933
vt 0.5001221 0.8844933
vt 0.1251221 0.8078144
vt 0.2498779 0.8078144
vt 0.2498779 0.8460318
vt 0.1251221 0.8460318
vt 0.1251221 0.404884
vt 0.2498779 0.404884
vt 0.2498779 0.4284494
vt 0.1251221 0.4284494
vt 0.1251221 0.3810745
vt 0.2498779 0.3810745
vt 0.2498779 0.4046398
vt 0.1251221 0.4046398
vt 0.8751221 0.5385836
vt 0.9998779 0.5385836
vt 0.9998779 0.6152626
vt 0.8751221 0.6152626
vt 0.8751221 0.4616605
vt 0.9998779 0.4616605
vt 0.9998779 0.5383395
vt 0.8751221 0.5383395
vt 0.3751221 0.923199
vt 0.4998779 0.923199
vt 0.4998779 0.9998779
vt 0.3751221 0.9998779
vt 0.2501221 0.923199
vt 0.3748779 0.923199
vt 0.3748779 0.9998779
vt 0.2501221 0.9998779
vt 0.5001221 0.923199
vt 0.6248779 0.923199
vt 0.6248779 0.9998779
vt 0.5001221 0.9998779
vt 0.3751221 0.8462759
vt 0.4998779 0.8462759
vt 0.4998779 0.9229549
vt 0.3751221 0.9229549
vt 0.2501221 0.8462759
vt 0.3748779 0.8462759
vt 0.3748779 0.9229549
vt 0.2501221 0.9229549
vt 0.6248779 0.9229549
vt 0.5001221 0.9229549
vt 0.7501221 0.6924298
vt 0.8748779 0.6924298
vt 0.8748779 0.7691087
vt 0.7501221 0.7691087
vt 0.8751221 0.5953602
vt 0.9998779 0.5953602
vt 0.9998779 0.6189256
vt 0.8751221 0.6189256
vt 0.3751221 0.7693529
vt 0.4998779 0.7693529
vt 0.4998779 0.8460318
vt 0.3751221 0.8460318
vt 0.2501221 0.7693529
vt 0.3748779 0.7693529
vt 0.3748779 0.8460318
vt 0.2501221 0.8460318
vt 0.5001221 0.7693529
vt 0.6248779 0.7693529
vt 0.6248779 0.8460318
vt 0.5001221 0.8460318
vt 0.8751221 0.5715507
vt 0.9998779 0.5715507
vt 0.9998779 0.595116
vt 0.8751221 0.595116
vt 0.5001221 0.2308913
vt 0.6248779 0.2308913
vt 0.6248779 0.3075702
vt 0.5001221 0.3075702
vt 0.7501221 0.2308913
vt 0.8748779 0.2308913
vt 0.8748779 0.3075702
vt 0.7501221 0.3075702
vt 0.8751221 0.2308913
vt 0.9998779 0.2308913
vt 0.9998779 0.3075702
vt 0.8751221 0.3075702
vt 0.8751221 0.8462759
vt 0.9998779 0.8462759
vt 0.9998779 0.9229549
vt 0.8751221 0.9229549
vt 0.0001220703 0.923199
vt 0.1248779 0.923199
vt 0.1248779 0.9998779
vt 0.0001220703 0.9998779
vt 0.8751221 0.7693529
vt 0.9998779 0.7693529
vt 0.9998779 0.8460318
vt 0.8751221 0.8460318
vt 0.7501221 0.923199
vt 0.8748779 0.923199
vt 0.2501221 0.6539682
vt 0.3748779 0.6539682
vt 0.3748779 0.6921856
vt 0.2501221 0.6921856
vt 0.7501221 0.8462759
vt 0.8748779 0.8462759
vt 0.8748779 0.9229549
vt 0.7501221 0.9229549
vt 0.2501221 0.6155067
vt 0.3748779 0.6155067
vt 0.3748779 0.6537241
vt 0.2501221 0.6537241
vt 0.0001220703 0.7693529
vt 0.1248779 0.7693529
vt 0.8751221 0.3847375
vt 0.9998779 0.3847375
vt 0.9998779 0.4614164
vt 0.8751221 0.4614164
vt 0.7501221 0.7693529
vt 0.8748779 0.7693529
vt 0.8748779 0.8460318
vt 0.7501221 0.8460318
vt 0.5001221 0.3078144
vt 0.6248779 0.3078144
vt 0.6248779 0.3844933
vt 0.5001221 0.3844933
vt 0.7501221 0.3078144
vt 0.8748779 0.3078144
vt 0.8748779 0.3844933
vt 0.7501221 0.3844933
vt 0.0001220703 0.0001220703
vt 0.9998779 0.0001220703
vt 0.9998779 0.9998779
vt 0.1876221 0.06262207
vt 0.2498779 0.06262207
vt 0.2498779 0.1248779
vt 0.1876221 0.1248779
vt 0.7501221 0.2501221
vt 0.8748779 0.2501221
vt 0.8748779 0.4998779
vt 0.7501221 0.4998779
vt 0.8751221 0.2501221
vt 0.9998779 0.2501221
vt 0.9998779 0.4998779
vt 0.8751221 0.4998779
vt 0.1876221 0.0001220703
vt 0.2498779 0.0001220703
vt 0.2498779 0.06237793
vt 0.1876221 0.06237793
vt 0.2501221 0.2501221
vt 0.3123779 0.2501221
vt 0.3123779 0.3123779
vt 0.2501221 0.3123779
vt 0.2501221 0.1876221
vt 0.3123779 0.1876221
vt 0.3123779 0.2498779
vt 0.2501221 0.2498779
vt 0.6251221 0.1191697
vt 0.7498779 0.1191697
vt 0.7498779 0.1427351
vt 0.6251221 0.1427351

# Normal
vn 0 0 -1

# Groups (Count = 14)
g mesh_[00]_[00]
f  1/1/1  2/2/1  3/3/1  4/4/1 
f  2/5/1  5/6/1  6/7/1  3/8/1 
f  5/5/1  7/6/1  8/7/1  6/8/1 
f  7/5/1  9/6/1  10/7/1  8/8/1 
f  9/5/1  11/6/1  12/7/1  10/8/1 
f  11/5/1  13/6/1  14/7/1  12/8/1 
f  13/5/1  15/6/1  16/7/1  14/8/1 
f  15/5/1  17/6/1  18/7/1  16/8/1 
f  17/5/1  19/6/1  20/7/1  18/8/1 
f  19/5/1  21/6/1  22/7/1  20/8/1 
f  21/5/1  23/6/1  24/7/1  22/8/1 
f  23/5/1  25/6/1  26/7/1  24/8/1 
f  25/5/1  27/6/1  28/7/1  26/8/1 
f  27/9/1  29/10/1  30/11/1  28/12/1 
f  31/13/1  32/14/1  2/15/1  1/16/1 
f  44/21/1  45/22/1  29/23/1  27/24/1 
f  46/13/1  47/14/1  32/15/1  31/16/1 
f  59/21/1  60/22/1  45/23/1  44/24/1 
f  61/13/1  62/14/1  47/15/1  46/16/1 
f  74/21/1  75/22/1  60/23/1  59/24/1 
f  76/13/1  77/14/1  62/15/1  61/16/1 
f  89/21/1  90/22/1  75/23/1  74/24/1 
f  91/13/1  92/14/1  77/15/1  76/16/1 
f  104/21/1  105/22/1  90/23/1  89/24/1 
f  106/13/1  107/14/1  92/15/1  91/16/1 
f  119/21/1  120/22/1  105/23/1  104/24/1 
f  121/25/1  122/26/1  107/27/1  106/28/1 
f  122/29/1  123/30/1  108/31/1  107/32/1 
f  123/29/1  124/30/1  109/31/1  108/32/1 
f  124/29/1  125/30/1  110/31/1  109/32/1 
f  125/29/1  126/30/1  111/31/1  110/32/1 
f  126/29/1  127/30/1  112/31/1  111/32/1 
f  129/33/1  130/34/1  115/35/1  114/36/1 
f  130/29/1  131/30/1  116/31/1  115/32/1 
f  131/29/1  132/30/1  117/31/1  116/32/1 
f  132/29/1  133/30/1  118/31/1  117/32/1 
f  133/29/1  134/30/1  119/31/1  118/32/1 
f  134/37/1  135/38/1  120/39/1  119/40/1 
g mesh_[00]_[07]
f  32/17/1  33/18/1  5/19/1  2/20/1 
f  33/17/1  34/18/1  7/19/1  5/20/1 
f  34/17/1  35/18/1  9/19/1  7/20/1 
f  35/17/1  36/18/1  11/19/1  9/20/1 
f  36/17/1  37/18/1  13/19/1  11/20/1 
f  37/17/1  38/18/1  15/19/1  13/20/1 
f  38/17/1  39/18/1  17/19/1  15/20/1 
f  39/17/1  40/18/1  19/19/1  17/20/1 
f  40/17/1  41/18/1  21/19/1  19/20/1 
f  41/17/1  42/18/1  23/19/1  21/20/1 
f  42/17/1  43/18/1  25/19/1  23/20/1 
f  43/17/1  44/18/1  27/19/1  25/20/1 
f  47/17/1  48/18/1  33/19/1  32/20/1 
f  48/17/1  49/18/1  34/19/1  33/20/1 
f  49/17/1  50/18/1  35/19/1  34/20/1 
f  50/17/1  51/18/1  36/19/1  35/20/1 
f  51/17/1  52/18/1  37/19/1  36/20/1 
f  52/17/1  53/18/1  38/19/1  37/20/1 
f  53/17/1  54/18/1  39/19/1  38/20/1 
f  54/17/1  55/18/1  40/19/1  39/20/1 
f  55/17/1  56/18/1  41/19/1  40/20/1 
f  56/17/1  57/18/1  42/19/1  41/20/1 
f  57/17/1  58/18/1  43/19/1  42/20/1 
f  58/17/1  59/18/1  44/19/1  43/20/1 
f  62/17/1  63/18/1  48/19/1  47/20/1 
f  63/17/1  64/18/1  49/19/1  48/20/1 
f  64/17/1  65/18/1  50/19/1  49/20/1 
f  65/17/1  66/18/1  51/19/1  50/20/1 
f  66/17/1  67/18/1  52/19/1  51/20/1 
f  67/17/1  68/18/1  53/19/1  52/20/1 
f  68/17/1  69/18/1  54/19/1  53/20/1 
f  69/17/1  70/18/1  55/19/1  54/20/1 
f  70/17/1  71/18/1  56/19/1  55/20/1 
f  71/17/1  72/18/1  57/19/1  56/20/1 
f  72/17/1  73/18/1  58/19/1  57/20/1 
f  73/17/1  74/18/1  59/19/1  58/20/1 
f  77/17/1  78/18/1  63/19/1  62/20/1 
f  78/17/1  79/18/1  64/19/1  63/20/1 
f  79/17/1  80/18/1  65/19/1  64/20/1 
f  80/17/1  81/18/1  66/19/1  65/20/1 
f  81/17/1  82/18/1  67/19/1  66/20/1 
f  82/17/1  83/18/1  68/19/1  67/20/1 
f  83/17/1  84/18/1  69/19/1  68/20/1 
f  84/17/1  85/18/1  70/19/1  69/20/1 
f  85/17/1  86/18/1  71/19/1  70/20/1 
f  86/17/1  87/18/1  72/19/1  71/20/1 
f  87/17/1  88/18/1  73/19/1  72/20/1 
f  88/17/1  89/18/1  74/19/1  73/20/1 
f  92/17/1  93/18/1  78/19/1  77/20/1 
f  93/17/1  94/18/1  79/19/1  78/20/1 
f  94/17/1  95/18/1  80/19/1  79/20/1 
f  95/17/1  96/18/1  81/19/1  80/20/1 
f  96/17/1  97/18/1  82/19/1  81/20/1 
f  97/17/1  98/18/1  83/19/1  82/20/1 
f  98/17/1  99/18/1  84/19/1  83/20/1 
f  99/17/1  100/18/1  85/19/1  84/20/1 
f  100/17/1  101/18/1  86/19/1  85/20/1 
f  101/17/1  102/18/1  87/19/1  86/20/1 
f  102/17/1  103/18/1  88/19/1  87/20/1 
f  103/17/1  104/18/1  89/19/1  88/20/1 
f  107/17/1  108/18/1  93/19/1  92/20/1 
f  108/17/1  109/18/1  94/19/1  93/20/1 
f  109/17/1  110/18/1  95/19/1  94/20/1 
f  110/17/1  111/18/1  96/19/1  95/20/1 
f  111/17/1  112/18/1  97/19/1  96/20/1 
f  112/17/1  113/18/1  98/19/1  97/20/1 
f  113/17/1  114/18/1  99/19/1  98/20/1 
f  114/17/1  115/18/1  100/19/1  99/20/1 
f  115/17/1  116/18/1  101/19/1  100/20/1 
f  116/17/1  117/18/1  102/19/1  101/20/1 
f  117/17/1  118/18/1  103/19/1  102/20/1 
f  118/17/1  119/18/1  104/19/1  103/20/1 
f  127/17/1  128/18/1  113/19/1  112/20/1 
f  128/17/1  129/18/1  114/19/1  113/20/1 
g mesh_[01]_[02]
f  39/41/1  40/42/1  19/43/1  17/44/1 
f  54/45/1  55/46/1  40/47/1  39/48/1 
g mesh_[01]_[01]
f  87/49/1  88/50/1  73/51/1  72/52/1 
f  102/53/1  103/54/1  88/55/1  87/56/1 
g mesh_[02]_[01]
f  10/57/1  12/58/1  136/59/1  137/60/1 
f  12/61/1  14/62/1  138/63/1  136/64/1 
f  14/57/1  16/58/1  139/59/1  138/60/1 
f  16/65/1  18/66/1  140/67/1  139/68/1 
f  9/69/1  11/70/1  12/71/1  10/72/1 
f  11/73/1  13/74/1  14/75/1  12/76/1 
f  13/69/1  15/70/1  16/71/1  14/72/1 
f  15/33/1  17/34/1  18/77/1  16/78/1 
f  23/79/1  25/80/1  26/81/1  24/82/1 
f  35/87/1  36/88/1  11/89/1  9/90/1 
f  36/91/1  37/92/1  13/93/1  11/94/1 
f  37/87/1  38/88/1  15/89/1  13/90/1 
f  38/95/1  39/96/1  17/97/1  15/98/1 
f  64/103/1  65/104/1  50/105/1  49/106/1 
f  65/107/1  66/108/1  51/109/1  50/110/1 
f  66/107/1  67/108/1  52/109/1  51/110/1 
f  67/107/1  68/108/1  53/109/1  52/110/1 
f  68/107/1  69/108/1  54/109/1  53/110/1 
f  69/107/1  70/108/1  55/109/1  54/110/1 
f  70/111/1  71/112/1  56/113/1  55/114/1 
f  72/115/1  73/116/1  58/117/1  57/118/1 
f  86/119/1  87/120/1  72/121/1  71/122/1 
f  87/123/1  88/124/1  73/125/1  72/126/1 
f  88/127/1  89/128/1  74/19/1  73/20/1 
f  101/13/1  102/14/1  87/3/1  86/4/1 
f  102/53/1  103/54/1  88/55/1  87/56/1 
f  103/133/1  104/134/1  89/135/1  88/136/1 
f  116/141/1  117/142/1  102/27/1  101/28/1 
f  117/143/1  118/144/1  103/145/1  102/146/1 
f  118/147/1  119/148/1  104/149/1  103/150/1 
g mesh_[02]_[02]
f  25/83/1  27/84/1  28/85/1  26/86/1 
f  43/99/1  44/100/1  27/101/1  25/102/1 
g mesh_[02]_[00]
f  92/129/1  93/130/1  78/131/1  77/132/1 
f  107/137/1  108/138/1  93/139/1  92/140/1 
g mesh_[03]_[01]
f  49/151/1  50/152/1  35/153/1  34/154/1 
f  50/155/1  51/156/1  36/157/1  35/158/1 
f  51/155/1  52/156/1  37/157/1  36/158/1 
f  53/155/1  54/156/1  39/157/1  38/158/1 
f  54/155/1  55/156/1  40/157/1  39/158/1 
f  55/155/1  56/156/1  41/157/1  40/158/1 
g mesh_[03]_[06]
f  52/159/1  53/160/1  38/161/1  37/122/1 
g mesh_[03]_[00]
f  92/129/1  93/130/1  78/131/1  77/132/1 
f  107/137/1  108/138/1  93/139/1  92/140/1 
g mesh_[04]_[05]
f  49/162/1  50/163/1  35/164/1  34/165/1 
f  64/174/1  65/175/1  50/176/1  49/177/1 
f  87/178/1  88/179/1  73/180/1  72/181/1 
f  102/182/1  103/183/1  88/184/1  87/185/1 
g mesh_[04]_[01]
f  52/155/1  53/156/1  38/157/1  37/158/1 
g mesh_[04]_[03]
f  54/166/1  55/167/1  40/168/1  39/169/1 
f  56/170/1  57/171/1  42/172/1  41/173/1 
g mesh_[05]_[02]
f  1/186/1  2/187/1  3/188/1  4/189/1 
f  2/186/1  5/187/1  6/188/1  3/189/1 
f  5/186/1  7/187/1  8/188/1  6/189/1 
f  7/186/1  9/187/1  10/188/1  8/189/1 
f  9/186/1  11/187/1  12/188/1  10/189/1 
f  11/186/1  13/187/1  14/188/1  12/189/1 
f  13/186/1  15/187/1  16/188/1  14/189/1 
f  15/186/1  17/187/1  18/188/1  16/189/1 
f  17/186/1  19/187/1  20/188/1  18/189/1 
f  19/186/1  21/187/1  22/188/1  20/189/1 
f  21/186/1  23/187/1  24/188/1  22/189/1 
f  23/186/1  25/187/1  26/188/1  24/189/1 
f  25/186/1  27/187/1  28/188/1  26/189/1 
f  27/186/1  29/187/1  30/188/1  28/189/1 
f  31/186/1  32/187/1  2/188/1  1/189/1 
f  35/186/1  36/187/1  11/188/1  9/189/1 
f  36/186/1  37/187/1  13/188/1  11/189/1 
f  37/186/1  38/187/1  15/188/1  13/189/1 
f  38/186/1  39/187/1  17/188/1  15/189/1 
f  43/186/1  44/187/1  27/188/1  25/189/1 
f  44/186/1  45/187/1  29/188/1  27/189/1 
f  46/186/1  47/187/1  32/188/1  31/189/1 
f  59/186/1  60/187/1  45/188/1  44/189/1 
f  61/186/1  62/187/1  47/188/1  46/189/1 
f  64/186/1  65/187/1  50/188/1  49/189/1 
f  65/186/1  66/187/1  51/188/1  50/189/1 
f  66/186/1  67/187/1  52/188/1  51/189/1 
f  67/186/1  68/187/1  53/188/1  52/189/1 
f  68/186/1  69/187/1  54/188/1  53/189/1 
f  69/186/1  70/187/1  55/188/1  54/189/1 
f  70/186/1  71/187/1  56/188/1  55/189/1 
f  74/186/1  75/187/1  60/188/1  59/189/1 
f  76/186/1  77/187/1  62/188/1  61/189/1 
f  89/186/1  90/187/1  75/188/1  74/189/1 
f  91/186/1  92/187/1  77/188/1  76/189/1 
f  102/186/1  103/187/1  88/188/1  87/189/1 
f  104/186/1  105/187/1  90/188/1  89/189/1 
f  106/186/1  107/187/1  92/188/1  91/189/1 
f  107/186/1  108/187/1  93/188/1  92/189/1 
f  117/186/1  118/187/1  103/188/1  102/189/1 
f  119/186/1  120/187/1  105/188/1  104/189/1 
f  121/186/1  122/187/1  107/188/1  106/189/1 
f  122/186/1  123/187/1  108/188/1  107/189/1 
f  123/186/1  124/187/1  109/188/1  108/189/1 
f  124/186/1  125/187/1  110/188/1  109/189/1 
f  125/186/1  126/187/1  111/188/1  110/189/1 
f  126/186/1  127/187/1  112/188/1  111/189/1 
f  129/186/1  130/187/1  115/188/1  114/189/1 
f  130/186/1  131/187/1  116/188/1  115/189/1 
f  131/186/1  132/187/1  117/188/1  116/189/1 
f  132/186/1  133/187/1  118/188/1  117/189/1 
f  133/186/1  134/187/1  119/188/1  118/189/1 
f  134/186/1  135/187/1  120/188/1  119/189/1 
